<?xml version="1.0" encoding="UTF-8"?>
<svg id="Layer_1" data-name="Layer 1" xmlns="http://www.w3.org/2000/svg" viewBox="0 0 1857.48 383.5">
  <path d="m159,13.5c23,0,44.41,3.67,64.25,11,19.83,7.34,37,18.34,51.5,33,14.5,14.67,25.83,33,34,55,8.16,22,12.25,47.84,12.25,77.5,0,26-3.34,50-10,72-6.67,22-16.75,41-30.25,57s-30.34,28.59-50.5,37.75c-20.17,9.17-43.92,13.75-71.25,13.75H5V13.5h154Zm-5.5,291c11.33,0,22.33-1.83,33-5.5,10.66-3.66,20.16-9.75,28.5-18.25,8.33-8.5,15-19.58,20-33.25,5-13.66,7.5-30.33,7.5-50,0-18-1.75-34.25-5.25-48.75s-9.25-26.91-17.25-37.25c-8-10.33-18.59-18.25-31.75-23.75-13.17-5.5-29.42-8.25-48.75-8.25h-56v225h70Z" style="fill: none; stroke: #231f20; stroke-miterlimit: 10; stroke-width: 10px;"/>
  <path d="m642.5,13.5v66h-188.5v76.5h173v61h-173v87.5h192.5v66h-271V13.5h267Z" style="fill: none; stroke: #231f20; stroke-miterlimit: 10; stroke-width: 10px;"/>
  <path d="m759.5,282.5c4.33,8.34,10.08,15.09,17.25,20.25,7.16,5.17,15.58,9,25.25,11.5,9.66,2.5,19.66,3.75,30,3.75,7,0,14.5-.58,22.5-1.75,8-1.16,15.5-3.41,22.5-6.75,7-3.33,12.83-7.91,17.5-13.75,4.66-5.83,7-13.25,7-22.25,0-9.66-3.09-17.5-9.25-23.5-6.17-6-14.25-11-24.25-15s-21.34-7.5-34-10.5c-12.67-3-25.5-6.33-38.5-10-13.34-3.33-26.34-7.41-39-12.25-12.67-4.83-24-11.08-34-18.75-10-7.66-18.09-17.25-24.25-28.75-6.17-11.5-9.25-25.41-9.25-41.75,0-18.33,3.91-34.25,11.75-47.75,7.83-13.5,18.08-24.75,30.75-33.75,12.66-9,27-15.66,43-20,16-4.33,32-6.5,48-6.5,18.66,0,36.58,2.09,53.75,6.25,17.16,4.17,32.41,10.92,45.75,20.25,13.33,9.34,23.91,21.25,31.75,35.75,7.83,14.5,11.75,32.09,11.75,52.75h-76c-.67-10.66-2.92-19.5-6.75-26.5-3.84-7-8.92-12.5-15.25-16.5-6.34-4-13.59-6.83-21.75-8.5-8.17-1.66-17.09-2.5-26.75-2.5-6.34,0-12.67.67-19,2-6.34,1.34-12.09,3.67-17.25,7-5.17,3.34-9.42,7.5-12.75,12.5-3.34,5-5,11.34-5,19,0,7,1.33,12.67,4,17,2.66,4.34,7.91,8.34,15.75,12,7.83,3.67,18.66,7.34,32.5,11,13.83,3.67,31.91,8.34,54.25,14,6.66,1.34,15.91,3.75,27.75,7.25,11.83,3.5,23.58,9.09,35.25,16.75,11.66,7.67,21.75,17.92,30.25,30.75,8.5,12.84,12.75,29.25,12.75,49.25,0,16.34-3.17,31.5-9.5,45.5-6.34,14-15.75,26.09-28.25,36.25-12.5,10.17-28,18.09-46.5,23.75s-39.92,8.5-64.25,8.5c-19.67,0-38.75-2.42-57.25-7.25s-34.84-12.41-49-22.75c-14.17-10.33-25.42-23.5-33.75-39.5-8.34-16-12.34-35-12-57h76c0,12,2.16,22.17,6.5,30.5Z" style="fill: none; stroke: #231f20; stroke-miterlimit: 10; stroke-width: 10px;"/>
  <path d="m1102.49,13.5v357h-78.5V13.5h78.5Z" style="fill: none; stroke: #231f20; stroke-miterlimit: 10; stroke-width: 10px;"/>
  <path d="m1382.99,367.75c-17,7.16-34.17,10.75-51.5,10.75-27.34,0-51.92-4.75-73.75-14.25-21.84-9.5-40.25-22.58-55.25-39.25-15-16.66-26.5-36.25-34.5-58.75s-12-46.75-12-72.75,4-51.41,12-74.25c8-22.83,19.5-42.75,34.5-59.75s33.41-30.33,55.25-40c21.83-9.66,46.41-14.5,73.75-14.5,18.33,0,36.08,2.75,53.25,8.25,17.16,5.5,32.66,13.59,46.5,24.25,13.83,10.67,25.25,23.84,34.25,39.5,9,15.67,14.5,33.67,16.5,54h-75c-4.67-20-13.67-35-27-45-13.34-10-29.5-15-48.5-15-17.67,0-32.67,3.42-45,10.25-12.34,6.84-22.34,16-30,27.5-7.67,11.5-13.25,24.59-16.75,39.25-3.5,14.67-5.25,29.84-5.25,45.5s1.75,29.59,5.25,43.75c3.5,14.17,9.08,26.92,16.75,38.25,7.66,11.34,17.66,20.42,30,27.25,12.33,6.84,27.33,10.25,45,10.25,26,0,46.08-6.58,60.25-19.75,14.16-13.16,22.41-32.25,24.75-57.25h-79v-58.5h150v193h-50l-8-40.5c-14,18-29.5,30.59-46.5,37.75Z" style="fill: none; stroke: #231f20; stroke-miterlimit: 10; stroke-width: 10px;"/>
  <path d="m1628.98,13.5l149,239.5h1V13.5h73.5v357h-78.5l-148.5-239h-1v239h-73.5V13.5h78Z" style="fill: none; stroke: #231f20; stroke-miterlimit: 10; stroke-width: 10px;"/>
</svg>