<?xml version="1.0" encoding="UTF-8"?>
<svg id="Layer_1" data-name="Layer 1" xmlns="http://www.w3.org/2000/svg" viewBox="0 0 1598.8 308.8">
  <path d="m93.4,11.8l66.8,196.4h.8L224.2,11.8h88.4v285.6h-58.8V95h-.8l-70,202.4h-48.4L64.6,97h-.8v200.4H5V11.8h88.4Z" style="fill: none; stroke: #231f20; stroke-miterlimit: 10; stroke-width: 10px;"/>
  <path d="m365,96.4c6.4-18.26,15.6-34.2,27.6-47.8,12-13.6,26.73-24.26,44.2-32,17.46-7.73,37.13-11.6,59-11.6s41.86,3.87,59.2,11.6c17.33,7.74,32,18.4,44,32,12,13.6,21.2,29.54,27.6,47.8,6.4,18.27,9.6,38.07,9.6,59.4s-3.2,40.2-9.6,58.2-15.6,33.67-27.6,47c-12,13.34-26.67,23.8-44,31.4-17.34,7.6-37.07,11.4-59.2,11.4s-41.54-3.8-59-11.4c-17.47-7.6-32.2-18.06-44.2-31.4-12-13.33-21.2-29-27.6-47-6.4-18-9.6-37.4-9.6-58.2s3.2-41.13,9.6-59.4Zm57.4,94.4c2.8,11.34,7.26,21.54,13.4,30.6,6.13,9.07,14.13,16.34,24,21.8,9.86,5.47,21.86,8.2,36,8.2s26.13-2.73,36-8.2c9.86-5.46,17.86-12.73,24-21.8,6.13-9.06,10.6-19.26,13.4-30.6,2.8-11.33,4.2-23,4.2-35s-1.4-24.66-4.2-36.4c-2.8-11.73-7.27-22.2-13.4-31.4-6.14-9.2-14.14-16.53-24-22-9.87-5.46-21.87-8.2-36-8.2s-26.14,2.74-36,8.2c-9.87,5.47-17.87,12.8-24,22-6.14,9.2-10.6,19.67-13.4,31.4-2.8,11.74-4.2,23.87-4.2,36.4s1.4,23.67,4.2,35Z" style="fill: none; stroke: #231f20; stroke-miterlimit: 10; stroke-width: 10px;"/>
  <path d="m656.6,64.6V11.8h234v52.8h-85.6v232.8h-62.8V64.6h-85.6Z" style="fill: none; stroke: #231f20; stroke-miterlimit: 10; stroke-width: 10px;"/>
  <path d="m986.2,11.8v285.6h-62.8V11.8h62.8Z" style="fill: none; stroke: #231f20; stroke-miterlimit: 10; stroke-width: 10px;"/>
  <path d="m1038.6,96.4c6.4-18.26,15.6-34.2,27.6-47.8,12-13.6,26.73-24.26,44.2-32,17.46-7.73,37.13-11.6,59-11.6s41.86,3.87,59.2,11.6c17.33,7.74,32,18.4,44,32,12,13.6,21.2,29.54,27.6,47.8,6.4,18.27,9.6,38.07,9.6,59.4s-3.2,40.2-9.6,58.2c-6.4,18-15.6,33.67-27.6,47-12,13.34-26.67,23.8-44,31.4-17.34,7.6-37.07,11.4-59.2,11.4s-41.54-3.8-59-11.4c-17.47-7.6-32.2-18.06-44.2-31.4-12-13.33-21.2-29-27.6-47-6.4-18-9.6-37.4-9.6-58.2s3.2-41.13,9.6-59.4Zm57.4,94.4c2.8,11.34,7.26,21.54,13.4,30.6,6.13,9.07,14.13,16.34,24,21.8,9.86,5.47,21.86,8.2,36,8.2s26.13-2.73,36-8.2c9.86-5.46,17.86-12.73,24-21.8,6.13-9.06,10.6-19.26,13.4-30.6,2.8-11.33,4.2-23,4.2-35s-1.4-24.66-4.2-36.4c-2.8-11.73-7.27-22.2-13.4-31.4-6.14-9.2-14.14-16.53-24-22-9.87-5.46-21.87-8.2-36-8.2s-26.14,2.74-36,8.2c-9.87,5.47-17.87,12.8-24,22-6.14,9.2-10.6,19.67-13.4,31.4-2.8,11.74-4.2,23.87-4.2,36.4s1.4,23.67,4.2,35Z" style="fill: none; stroke: #231f20; stroke-miterlimit: 10; stroke-width: 10px;"/>
  <path d="m1415,11.8l119.2,191.6h.8V11.8h58.8v285.6h-62.8l-118.8-191.2h-.8v191.2h-58.8V11.8h62.4Z" style="fill: none; stroke: #231f20; stroke-miterlimit: 10; stroke-width: 10px;"/>
</svg>